<svg width="16" height="23" viewBox="0 0 16 23" fill="none" xmlns="http://www.w3.org/2000/svg">
<rect width="16" height="23" fill="#E5E5E5"/>
<g id="&#208;&#161;&#209;&#130;&#208;&#176;&#209;&#130;&#209;&#140; &#208;&#191;&#208;&#176;&#209;&#128;&#209;&#130;&#208;&#189;&#209;&#145;&#209;&#128;&#208;&#190;&#208;&#188;" clip-path="url(#clip0_0_1)">
<rect width="1280" height="1649" transform="translate(-890 -503)" fill="white"/>
<path id="Rectangle 2" d="M-890 -533H390V1189H-890L-890 -533Z" fill="black" fill-opacity="0.42"/>
<g id="Group 1462">
<rect id="Rectangle 80" x="-624" y="-402" width="754" height="1248" rx="12" fill="white"/>
</g>
<g id="ui/input/2-filled">
<g id="bg">
<path id="input" d="M-525.5 -14C-525.5 -14.8284 -524.828 -15.5 -524 -15.5H30C30.8284 -15.5 31.5 -14.8284 31.5 -14V38C31.5 38.8284 30.8284 39.5 30 39.5H-524C-524.828 39.5 -525.5 38.8284 -525.5 38V-14Z" fill="white" stroke="#D6DADE"/>
</g>
<g id="Group" clip-path="url(#clip1_0_1)">
<g id="Group_2" clip-path="url(#clip2_0_1)">
<g id="Group_3" clip-path="url(#clip3_0_1)">
<path id="icon-color" fill-rule="evenodd" clip-rule="evenodd" d="M11.625 12.7411L7.06694 8.18306C6.82286 7.93898 6.42714 7.93898 6.18306 8.18306C5.93898 8.42714 5.93898 8.82286 6.18306 9.06694L11.625 14.5089L17.0669 9.06694C17.311 8.82286 17.311 8.42714 17.0669 8.18306C16.8229 7.93898 16.4271 7.93898 16.1831 8.18306L11.625 12.7411Z" fill="#6A6E72"/>
</g>
</g>
</g>
</g>
</g>
<defs>
<clipPath id="clip0_0_1">
<rect width="1280" height="1649" fill="white" transform="translate(-890 -503)"/>
</clipPath>
<clipPath id="clip1_0_1">
<rect width="526" height="40" fill="white" transform="translate(-510 -8)"/>
</clipPath>
<clipPath id="clip2_0_1">
<rect width="24" height="24" fill="white"/>
</clipPath>
<clipPath id="clip3_0_1">
<rect width="24" height="24" fill="white" transform="translate(0 -1)"/>
</clipPath>
</defs>
</svg>
